<svg xmlns="http://www.w3.org/2000/svg" viewBox="0 0 512 512" role="img" aria-label="QuitTheApp maskable icon">
  <rect width="512" height="512" fill="#0891b2"/>
  <circle cx="256" cy="256" r="190" fill="#ffffff" opacity=".14"/>
  <path fill="#ffffff" d="M126 179c0-25 20-45 45-45h170c25 0 45 20 45 45v100h26c10 0 18 8 18 18v28c0 10-8 18-18 18h-26v22c0 16-13 29-29 29s-29-13-29-29v-22H184v22c0 16-13 29-29 29s-29-13-29-29v-22h-26c-10 0-18-8-18-18v-28c0-10 8-18 18-18h26V179Zm51 5v78h158v-78H177Zm27 128a25 25 0 1 0-50 0 25 25 0 0 0 50 0Zm178 0a25 25 0 1 0-50 0 25 25 0 0 0 50 0Z"/>
</svg>
